<svg width="19" height="12" viewBox="0 0 19 12" fill="none" xmlns="http://www.w3.org/2000/svg">
<path d="M2.58568 4.05681L0.862075 5.78041C0.738519 5.90396 0.738519 6.09548 0.862075 6.21903L2.58568 7.94263C2.62827 7.98647 2.68302 8.01654 2.74287 8.02896C2.80272 8.04138 2.86492 8.03558 2.92144 8.01231C2.97796 7.98903 3.02621 7.94936 3.05996 7.8984C3.09371 7.84744 3.11141 7.78753 3.11079 7.72641L3.11079 6.62059L8.6708 6.62059C9.01057 6.62059 9.28857 6.34259 9.28857 6.00281C9.28857 5.66303 9.01057 5.38503 8.6708 5.38503L3.11079 5.38503L3.11079 4.27921C3.11079 4.00121 2.77719 3.8653 2.58568 4.05681Z" fill="#3D4B71"/>
<path d="M17.4493 0.446167H6.32931C5.64975 0.446167 5.09375 1.00217 5.09375 1.68172V3.52888C5.09375 3.86866 5.37175 4.14666 5.71153 4.14666C6.05131 4.14666 6.32931 3.86866 6.32931 3.52888V2.28715C6.32931 1.94737 6.60731 1.66937 6.94709 1.66937H16.8315C17.1713 1.66937 17.4493 1.94737 17.4493 2.28715V9.71902C17.4493 10.0588 17.1713 10.3368 16.8315 10.3368H6.94709C6.60731 10.3368 6.32931 10.0588 6.32931 9.71902V8.47111C6.32931 8.13133 6.05131 7.85333 5.71153 7.85333C5.37175 7.85333 5.09375 8.13133 5.09375 8.47111V10.3306C5.09375 11.004 5.64357 11.5538 6.31695 11.5538H17.4493C18.1289 11.5538 18.6849 10.9978 18.6849 10.3183V1.68172C18.6849 1.00217 18.1289 0.446167 17.4493 0.446167Z" fill="#3D4B71"/>
</svg>
