<svg width="50" height="49" viewBox="0 0 50 49" fill="none" xmlns="http://www.w3.org/2000/svg">
<path d="M45.7586 25.1813C45.3513 36.5654 35.7862 45.4573 24.4175 45.0466C13.0331 44.6393 4.1413 35.0747 4.55207 23.7062C4.95939 12.3221 14.5085 3.43354 25.893 3.84095C37.2583 4.23577 46.1661 13.797 45.7586 25.1813Z" fill="url(#paint0_linear)"/>
<path d="M34.2288 19.8972C34.0559 17.1343 31.7158 16.1145 28.7067 15.7467L28.8505 11.9123L26.5271 11.8276L26.3949 15.5607C25.7817 15.5423 25.1527 15.5272 24.5271 15.5278L24.656 11.7789L22.3327 11.6942L22.2013 15.5095C21.6894 15.5025 21.1932 15.4923 20.7128 15.4786L20.7094 15.4629L17.4916 15.3534L17.4087 17.841C17.4087 17.841 19.1279 17.8724 19.0997 17.8949C20.0449 17.9254 20.3292 18.491 20.3977 18.9705L20.2346 23.3359C20.301 23.3384 20.3832 23.3375 20.4877 23.3647C20.4056 23.3656 20.3235 23.3666 20.238 23.3517L20.0153 29.4588C19.9616 29.7501 19.7646 30.22 19.1166 30.1924C19.139 30.2206 17.4255 30.1386 17.4255 30.1386L16.8592 32.9096L19.897 33.0243C20.4629 33.0528 21.0097 33.0688 21.5599 33.1006L21.4228 36.9665L23.7461 37.0512L23.8899 33.2169C24.5222 33.2477 25.1545 33.2786 25.7519 33.3004L25.6206 37.1157L27.944 37.2004L28.081 33.3345C32.0139 33.2433 34.7909 32.3593 35.2493 28.6889C35.6305 25.7429 34.2849 24.3644 32.0788 23.7444C33.4746 23.1032 34.3587 21.9116 34.2288 19.8972ZM30.6702 28.0605C30.5728 30.9464 25.6253 30.4454 24.0479 30.384L24.231 25.2568C25.8084 25.3182 30.7882 25.0385 30.6702 28.0605ZM29.8528 20.7737C29.7527 23.4132 25.6367 22.9504 24.3248 22.8986L24.4943 18.2519C25.8061 18.3036 29.9487 18.0363 29.8528 20.7737Z" fill="white"/>
<defs>
<linearGradient id="paint0_linear" x1="20.8728" y1="4.26162" x2="29.4122" y2="44.617" gradientUnits="userSpaceOnUse">
<stop stop-color="#F9AA4B"/>
<stop offset="1" stop-color="#F7931A"/>
</linearGradient>
</defs>
</svg>
