<svg width="47" height="47" viewBox="0 0 47 47" fill="none" xmlns="http://www.w3.org/2000/svg">
<circle cx="23.0463" cy="23.6791" r="22.9701" fill="#F9A540"/>
<path d="M18.5579 35.7481H21.129V31.8319H28.8425V29.2212H21.129V26.6104H26.9141C30.4584 26.6104 33.342 23.6825 33.342 20.0835C33.342 16.4846 30.4584 13.5566 26.9141 13.5566H19.8435C19.5025 13.5566 19.1755 13.6942 18.9344 13.939C18.6933 14.1838 18.5579 14.5158 18.5579 14.862V23.9997H14.7012V26.6104H18.5579V29.2212H14.7012V31.8319H18.5579V35.7481ZM21.129 16.1674H26.9141C29.0405 16.1674 30.7708 17.9244 30.7708 20.0835C30.7708 22.2426 29.0405 23.9997 26.9141 23.9997H21.129V16.1674Z" fill="white"/>
</svg>
