<svg width="46" height="46" viewBox="0 0 46 46" fill="none" xmlns="http://www.w3.org/2000/svg">
<circle cx="23.3129" cy="22.8627" r="22.6449" fill="#F9A540"/>
<path d="M25.5348 19.5656H19.5155C20.4308 17.2355 22.539 15.904 25.2852 15.904C26.8386 15.904 28.2533 16.3479 29.557 17.2078V14.2952C28.2533 13.4907 26.6999 13.1024 24.9246 13.1024C22.7332 13.1024 20.8747 13.7126 19.349 14.9054C17.8234 16.0982 16.7693 17.6516 16.1868 19.5656H13.6348V21.7292H15.7429C15.7152 22.284 15.6875 22.7001 15.6875 23.0052C15.6875 23.4768 15.6875 23.8097 15.7152 24.0316H13.6348V26.1952H16.0481C16.5751 28.3312 17.6015 30.0232 19.1271 31.327C20.6805 32.603 22.6222 33.241 24.9246 33.241C26.9773 33.241 28.6694 32.7972 29.9731 31.8818V28.8305C28.6694 29.9123 27.0882 30.4393 25.2852 30.4393C22.3171 30.4393 20.1257 28.8582 19.349 26.1952H25.5348V24.0316H18.8497C18.822 23.6155 18.7942 23.2549 18.7942 22.9498C18.7942 22.5892 18.822 22.1731 18.8775 21.7292H25.5348V19.5656Z" fill="#F3F3F3"/>
</svg>
