<svg width="17" height="14" viewBox="0 0 17 14" fill="none" xmlns="http://www.w3.org/2000/svg">
<path d="M14.4991 5.73479L14.4991 5.73476L14.4979 5.73355C14.391 5.62832 14.2471 5.56933 14.0971 5.56933C13.9471 5.56933 13.8031 5.62832 13.6963 5.73355L13.6962 5.73352L13.6951 5.73477L12.1786 7.38116C12.1261 7.43326 12.0844 7.49522 12.0559 7.56349C12.0273 7.63201 12.0126 7.70552 12.0126 7.77977C12.0126 7.85402 12.0273 7.92754 12.0559 7.99606C12.0845 8.06458 12.1264 8.12675 12.1792 8.17897C12.1858 8.18544 12.1946 8.18906 12.2038 8.18906H13.4133C13.1765 9.04796 12.7209 9.83101 12.0906 10.4614C11.4497 11.1026 10.6508 11.5631 9.77486 11.7965C8.75107 12.0643 7.66983 12.0123 6.67653 11.6473C5.68321 11.2823 4.82546 10.6219 4.21863 9.75495C4.20764 9.73926 4.18605 9.73536 4.17027 9.74622L3.11206 10.4747C3.1044 10.4799 3.09916 10.488 3.09751 10.4972C3.09585 10.5063 3.09792 10.5158 3.10326 10.5234C3.86963 11.6183 4.95294 12.4522 6.20747 12.913C7.462 13.3738 8.82755 13.4393 10.1204 13.1007L10.1205 13.1007C11.2833 12.7924 12.3377 12.1674 13.1664 11.2954C13.9886 10.4302 14.5565 9.3554 14.8082 8.18906H15.9875C15.9967 8.18906 16.0055 8.18543 16.0121 8.17896C16.0648 8.12674 16.1067 8.06461 16.1353 7.99614C16.1639 7.92767 16.1786 7.85422 16.1787 7.78002C16.1788 7.70582 16.1642 7.63233 16.1358 7.56379C16.1075 7.49549 16.066 7.43344 16.0137 7.3812L14.4991 5.73479Z" fill="#3D4B71" stroke="black" stroke-width="0.0697696" stroke-linejoin="round"/>
<path d="M5.02889 6.57124L5.02893 6.57129L5.03041 6.56982C5.08319 6.5176 5.12509 6.45543 5.15369 6.38691C5.18229 6.31839 5.19701 6.24488 5.19701 6.17063C5.19701 6.09638 5.18229 6.02286 5.15369 5.95434C5.12509 5.88582 5.08319 5.82365 5.03041 5.77143C5.02388 5.76497 5.01506 5.76134 5.00588 5.76134H3.6387C3.88086 4.91368 4.33692 4.14222 4.96338 3.52123C5.6007 2.88949 6.3922 2.43548 7.25927 2.20428C8.28307 1.9362 9.36445 1.98835 10.3577 2.35372C11.351 2.71909 12.2084 3.38014 12.8145 4.2478C12.8254 4.26352 12.847 4.26743 12.8628 4.25655L13.922 3.52715C13.9297 3.52188 13.9349 3.51377 13.9366 3.50462C13.9382 3.49547 13.9361 3.48604 13.9308 3.47842C13.1642 2.38292 12.0805 1.54849 10.8255 1.08737C9.57041 0.626246 8.20424 0.560566 6.91075 0.899161L6.91062 0.899196C5.75679 1.20609 4.70969 1.82466 3.88405 2.68711C3.06487 3.5428 2.49506 4.60582 2.23585 5.76134H0.85547C0.846283 5.76134 0.837466 5.76497 0.830935 5.77143C0.778153 5.82365 0.736252 5.88582 0.707655 5.95434C0.679058 6.02286 0.664334 6.09638 0.664334 6.17063C0.664334 6.24488 0.679058 6.31839 0.707655 6.38691C0.736237 6.45539 0.778108 6.51754 0.83085 6.56974C0.830878 6.56977 0.830907 6.5698 0.830935 6.56982L2.41958 8.15751L2.41977 8.15769C2.52664 8.26292 2.6706 8.3219 2.82058 8.3219C2.97023 8.3219 3.11388 8.26318 3.22067 8.1584L5.02889 6.57124Z" fill="#3D4B71" stroke="black" stroke-width="0.0697696" stroke-linejoin="round"/>
</svg>
