<svg width="17" height="12" viewBox="0 0 17 12" fill="none" xmlns="http://www.w3.org/2000/svg">
<path d="M6.7029 7.94603L8.4265 6.22243C8.55006 6.09887 8.55006 5.90736 8.4265 5.78381L6.7029 4.0602C6.6603 4.01637 6.60555 3.9863 6.5457 3.97388C6.48585 3.96146 6.42366 3.96726 6.36714 3.99053C6.31062 4.01381 6.26237 4.05348 6.22862 4.10444C6.19487 4.1554 6.17716 4.21531 6.17779 4.27643V5.38225H0.617779C0.278 5.38225 0 5.66025 0 6.00003C0 6.33981 0.278 6.61781 0.617779 6.61781H6.17779V7.72363C6.17779 8.00163 6.51139 8.13754 6.7029 7.94603Z" fill="#3D4B71"/>
<path d="M15.4444 0.446167H4.32442C3.64487 0.446167 3.08887 1.00217 3.08887 1.68172V3.52888C3.08887 3.86866 3.36687 4.14666 3.70665 4.14666C4.04642 4.14666 4.32442 3.86866 4.32442 3.52888V2.28715C4.32442 1.94737 4.60242 1.66937 4.9422 1.66937H14.8267C15.1664 1.66937 15.4444 1.94737 15.4444 2.28715V9.71902C15.4444 10.0588 15.1664 10.3368 14.8267 10.3368H4.9422C4.60242 10.3368 4.32442 10.0588 4.32442 9.71902V8.47111C4.32442 8.13133 4.04642 7.85333 3.70665 7.85333C3.36687 7.85333 3.08887 8.13133 3.08887 8.47111V10.3306C3.08887 11.004 3.63869 11.5538 4.31207 11.5538H15.4444C16.124 11.5538 16.68 10.9978 16.68 10.3183V1.68172C16.68 1.00217 16.124 0.446167 15.4444 0.446167Z" fill="#3D4B71"/>
</svg>
