<svg width="366" height="371" viewBox="0 0 366 371" fill="none" xmlns="http://www.w3.org/2000/svg">
<mask id="path-1-inside-1" fill="white">
<path fill-rule="evenodd" clip-rule="evenodd" d="M20.0004 0C17.7912 0 16.0004 1.79085 16.0004 3.99999V77.2132L1.8288 91.3848C0.266702 92.9469 0.266702 95.4795 1.8288 97.0416L16.0004 111.213V367C16.0004 369.209 17.7912 371 20.0004 371H362C364.21 371 366 369.209 366 367V4C366 1.79086 364.21 0 362 0H20.0004Z"/>
</mask>
<path d="M16.0004 77.2132L16.7075 77.9203L17.0004 77.6274V77.2132H16.0004ZM1.8288 91.3848L1.12169 90.6777H1.12169L1.8288 91.3848ZM1.8288 97.0416L1.12169 97.7487H1.12169L1.8288 97.0416ZM16.0004 111.213H17.0004V110.799L16.7075 110.506L16.0004 111.213ZM17.0004 3.99999C17.0004 2.34314 18.3435 1 20.0004 1V-1C17.239 -1 15.0004 1.23856 15.0004 3.99999H17.0004ZM17.0004 77.2132V3.99999H15.0004V77.2132H17.0004ZM2.53591 92.0919L16.7075 77.9203L15.2933 76.5061L1.12169 90.6777L2.53591 92.0919ZM2.53591 96.3345C1.36433 95.1629 1.36433 93.2635 2.53591 92.0919L1.12169 90.6777C-0.830928 92.6303 -0.830929 95.7961 1.12169 97.7487L2.53591 96.3345ZM16.7075 110.506L2.53591 96.3345L1.12169 97.7487L15.2933 111.92L16.7075 110.506ZM17.0004 367V111.213H15.0004V367H17.0004ZM20.0004 370C18.3435 370 17.0004 368.657 17.0004 367H15.0004C15.0004 369.761 17.239 372 20.0004 372V370ZM362 370H20.0004V372H362V370ZM365 367C365 368.657 363.657 370 362 370V372C364.762 372 367 369.761 367 367H365ZM365 4V367H367V4H365ZM362 1C363.657 1 365 2.34315 365 4H367C367 1.23858 364.762 -1 362 -1V1ZM20.0004 1H362V-1H20.0004V1Z" fill="#3D4B71" mask="url(#path-1-inside-1)"/>
</svg>
