<svg width="920" height="421" viewBox="0 0 920 421" fill="none" xmlns="http://www.w3.org/2000/svg">
<mask id="path-1-inside-1" fill="white">
<path fill-rule="evenodd" clip-rule="evenodd" d="M140.87 15H916C918.209 15 920 16.7909 920 19V417C920 419.209 918.209 421 916 421H3.99998C1.79084 421 0 419.209 0 417V19C0 16.7909 1.79086 15 4 15H107.556L121.385 1.17157C122.947 -0.390524 125.48 -0.390524 127.042 1.17157L140.87 15Z"/>
</mask>
<path d="M140.87 15L140.163 15.7071L140.456 16H140.87V15ZM107.556 15V16H107.971L108.263 15.7071L107.556 15ZM121.385 1.17157L120.678 0.464465V0.464466L121.385 1.17157ZM127.042 1.17157L127.749 0.464466V0.464465L127.042 1.17157ZM140.87 16H916V14H140.87V16ZM916 16C917.657 16 919 17.3432 919 19H921C921 16.2386 918.761 14 916 14V16ZM919 19V417H921V19H919ZM919 417C919 418.657 917.657 420 916 420V422C918.761 422 921 419.761 921 417H919ZM916 420H3.99998V422H916V420ZM3.99998 420C2.34313 420 1 418.657 1 417H-1C-1 419.761 1.23855 422 3.99998 422V420ZM1 417V19H-1V417H1ZM1 19C1 17.3432 2.34315 16 4 16V14C1.23857 14 -1 16.2386 -1 19H1ZM4 16H107.556V14H4V16ZM108.263 15.7071L122.092 1.87868L120.678 0.464466L106.849 14.2929L108.263 15.7071ZM122.092 1.87868C123.263 0.707106 125.163 0.707106 126.335 1.87868L127.749 0.464465C125.796 -1.48815 122.63 -1.48816 120.678 0.464465L122.092 1.87868ZM126.335 1.87868L140.163 15.7071L141.577 14.2929L127.749 0.464466L126.335 1.87868Z" fill="#3D4B71" mask="url(#path-1-inside-1)"/>
</svg>
