<svg width="920" height="377" viewBox="0 0 920 377" fill="none" xmlns="http://www.w3.org/2000/svg">
<mask id="path-1-inside-1" fill="white">
<path fill-rule="evenodd" clip-rule="evenodd" d="M141.213 16.0001H916C918.209 16.0001 920 17.791 920 20.0001V373C920 375.209 918.209 377 916 377H3.99998C1.79084 377 0 375.209 0 373V20.0001C0 17.791 1.79086 16.0001 4 16.0001H107.213L121.385 1.82843C122.947 0.266336 125.48 0.266336 127.042 1.82843L141.213 16.0001Z"/>
</mask>
<path d="M141.213 16.0001L140.506 16.7072L140.799 17.0001H141.213V16.0001ZM107.213 16.0001V17.0001H107.627L107.92 16.7072L107.213 16.0001ZM121.385 1.82843L120.678 1.12132V1.12133L121.385 1.82843ZM127.042 1.82843L127.749 1.12133V1.12133L127.042 1.82843ZM141.213 17.0001H916V15.0001H141.213V17.0001ZM916 17.0001C917.657 17.0001 919 18.3433 919 20.0001H921C921 17.2387 918.761 15.0001 916 15.0001V17.0001ZM919 20.0001V373H921V20.0001H919ZM919 373C919 374.657 917.657 376 916 376V378C918.761 378 921 375.762 921 373H919ZM916 376H3.99998V378H916V376ZM3.99998 376C2.34313 376 1 374.657 1 373H-1C-1 375.762 1.23855 378 3.99998 378V376ZM1 373V20.0001H-1V373H1ZM1 20.0001C1 18.3433 2.34314 17.0001 4 17.0001V15.0001C1.23858 15.0001 -1 17.2387 -1 20.0001H1ZM4 17.0001H107.213V15.0001H4V17.0001ZM107.92 16.7072L122.092 2.53554L120.678 1.12133L106.506 15.293L107.92 16.7072ZM122.092 2.53554C123.263 1.36397 125.163 1.36397 126.335 2.53554L127.749 1.12133C125.796 -0.831294 122.63 -0.831295 120.678 1.12132L122.092 2.53554ZM126.335 2.53554L140.506 16.7072L141.92 15.293L127.749 1.12133L126.335 2.53554Z" fill="#3D4B71" mask="url(#path-1-inside-1)"/>
</svg>
