<svg width="586" height="683" viewBox="0 0 586 683" fill="none" xmlns="http://www.w3.org/2000/svg">
<mask id="path-1-inside-1" fill="white">
<path fill-rule="evenodd" clip-rule="evenodd" d="M22 0C19.7909 0 18 1.79086 18 4V56.3262C17.7839 56.4703 17.5788 56.6377 17.3881 56.8284L1.83173 72.3848C0.269632 73.9469 0.269632 76.4795 1.83173 78.0416L17.3881 93.598C17.5788 93.7887 17.7839 93.9561 18 94.1002V679C18 681.209 19.7908 683 22 683H582C584.209 683 586 681.209 586 679V4C586 1.79086 584.209 0 582 0H22Z"/>
</mask>
<path d="M18 56.3262L18.5549 57.1581L19 56.8612V56.3262H18ZM17.3881 56.8284L18.0952 57.5355L18.0952 57.5355L17.3881 56.8284ZM1.83173 72.3848L1.12462 71.6777H1.12462L1.83173 72.3848ZM1.83173 78.0416L1.12462 78.7487H1.12462L1.83173 78.0416ZM17.3881 93.598L18.0952 92.8909L18.0952 92.8909L17.3881 93.598ZM18 94.1002H19V93.5652L18.5549 93.2683L18 94.1002ZM19 4C19 2.34315 20.3431 1 22 1V-1C19.2386 -1 17 1.23857 17 4H19ZM19 56.3262V4H17V56.3262H19ZM18.0952 57.5355C18.2391 57.3916 18.3932 57.2659 18.5549 57.1581L17.4451 55.4943C17.1746 55.6747 16.9184 55.8839 16.681 56.1213L18.0952 57.5355ZM2.53884 73.0919L18.0952 57.5355L16.681 56.1213L1.12462 71.6777L2.53884 73.0919ZM2.53884 77.3345C1.36726 76.1629 1.36726 74.2635 2.53884 73.0919L1.12462 71.6777C-0.827998 73.6303 -0.827999 76.7961 1.12462 78.7487L2.53884 77.3345ZM18.0952 92.8909L2.53884 77.3345L1.12462 78.7487L16.681 94.3051L18.0952 92.8909ZM18.5549 93.2683C18.3932 93.1605 18.2391 93.0348 18.0952 92.8909L16.681 94.3051C16.9184 94.5425 17.1746 94.7517 17.4451 94.9321L18.5549 93.2683ZM19 679V94.1002H17V679H19ZM22 682C20.3431 682 19 680.657 19 679H17C17 681.761 19.2386 684 22 684V682ZM582 682H22V684H582V682ZM585 679C585 680.657 583.657 682 582 682V684C584.761 684 587 681.761 587 679H585ZM585 4V679H587V4H585ZM582 1C583.657 1 585 2.34314 585 4H587C587 1.23858 584.761 -1 582 -1V1ZM22 1H582V-1H22V1Z" fill="#3D4B71" mask="url(#path-1-inside-1)"/>
</svg>
