<svg width="48" height="47" viewBox="0 0 48 47" fill="none" xmlns="http://www.w3.org/2000/svg">
<path d="M23.8182 0.385254C10.994 0.385254 0.595703 10.6705 0.595703 23.3553C0.595703 36.0402 10.994 46.3254 23.8182 46.3254C36.6424 46.3254 47.0407 36.0402 47.0407 23.3553C47.0407 10.6705 36.6424 0.385254 23.8182 0.385254ZM24.9742 34.4917L24.9845 36.1171C24.9845 36.3427 24.7979 36.5324 24.5698 36.5324H23.0977C22.8696 36.5324 22.683 36.3478 22.683 36.1222V34.5122C18.08 34.1738 15.9132 31.5795 15.68 28.7595C15.6592 28.5185 15.851 28.3134 16.0947 28.3134H18.4895C18.6916 28.3134 18.8679 28.457 18.899 28.6518C19.1633 30.2771 20.4437 31.4923 22.74 31.7948V24.4782L21.4597 24.1552C18.7487 23.5143 16.1672 21.8428 16.1672 18.3768C16.1672 14.639 19.0389 12.6291 22.7089 12.2754V10.5834C22.7089 10.3578 22.8955 10.1732 23.1236 10.1732H24.5802C24.8083 10.1732 24.9949 10.3578 24.9949 10.5834V12.26C28.5457 12.6138 31.21 14.6647 31.521 17.8589C31.547 18.0999 31.3552 18.3101 31.1063 18.3101H28.7789C28.5716 18.3101 28.3953 18.1563 28.3694 17.9563C28.1621 16.4592 26.9491 15.2389 24.9742 14.9723V21.8582L26.2908 22.1607C29.6498 22.9811 31.9357 24.5705 31.9357 28.1288C31.9357 31.9896 29.0329 34.1431 24.9742 34.4917ZM19.3914 18.1409C19.3914 19.4433 20.2052 20.4533 21.9573 21.0788C22.2009 21.1763 22.4446 21.2532 22.7348 21.3352V14.9774C20.8221 15.2184 19.3914 16.2797 19.3914 18.1409ZM25.4303 25.073C25.2852 25.0422 25.14 25.0063 24.9742 24.9602V31.8153C27.1824 31.6205 28.7063 30.4207 28.7063 28.4108C28.7063 26.8367 27.8822 25.8113 25.4303 25.073Z" fill="#F9A540"/>
</svg>
