<svg width="20" height="26" viewBox="0 0 20 26" fill="none" xmlns="http://www.w3.org/2000/svg">
<path d="M17.7107 8.12153C17.4018 5.37056 15.0143 4.46729 11.9908 4.24822L11.9454 0.411423L9.62071 0.441291L9.67261 4.17641C9.05924 4.18819 8.43031 4.20409 7.80547 4.23557L7.74947 0.484871L5.42476 0.514739L5.48162 4.33185C4.96994 4.35015 4.47384 4.36434 3.99332 4.37442L3.98921 4.35884L0.76988 4.40802L0.809671 6.89673C0.809671 6.89673 2.52838 6.84338 2.50133 6.86718C3.4468 6.85112 3.75868 7.40201 3.85076 7.87757L3.90297 12.2457C3.96939 12.2449 4.05139 12.2399 4.15718 12.262C4.07518 12.267 3.99319 12.2719 3.90708 12.2613L3.98559 18.372C3.94638 18.6656 3.77277 19.1445 3.12415 19.149C3.14794 19.176 1.43249 19.1785 1.43249 19.1785L1.00339 21.9741L4.04314 21.939C4.60977 21.9395 5.15671 21.9286 5.70776 21.9332L5.76136 25.8012L8.08607 25.7713L8.04068 21.9345C8.67373 21.9342 9.30678 21.9339 9.90456 21.9262L9.96142 25.7433L12.2861 25.7135L12.2325 21.8455C16.1561 21.5606 18.8862 20.5408 19.1632 16.8523C19.3987 13.8911 17.9868 12.5806 15.7528 12.07C17.1153 11.3609 17.9396 10.1272 17.7107 8.12153ZM14.5586 16.4503C14.6036 19.3375 9.63745 19.0809 8.05894 19.0973L7.98912 13.9673C9.56763 13.951 14.5276 13.4261 14.5586 16.4503ZM13.3832 9.21268C13.4132 11.8539 9.27945 11.5944 7.96662 11.6074L7.90688 6.95794C9.21971 6.94499 13.3441 6.47387 13.3832 9.21268Z" fill="#A9A9A9"/>
</svg>
