<svg width="20" height="27" viewBox="0 0 20 27" fill="none" xmlns="http://www.w3.org/2000/svg">
<path d="M3.31274 26.4096V21.5622H0.211779V19.2453H3.31274V16.0731H0.211779V13.3642H3.31274V0.960356H10.0137C13.1265 0.960356 15.4314 1.59005 16.9285 2.84945C18.4492 4.10884 19.2096 5.93853 19.2096 8.33851C19.2096 10.7622 18.3898 12.6632 16.7502 14.0414C15.1107 15.3959 12.6988 16.0731 9.51467 16.0731H6.52063V19.2453H12.4018V21.5622H6.52063V26.4096H3.31274ZM9.05131 13.3642C11.2137 13.3642 12.8889 13.0078 14.077 12.2949C15.2889 11.582 15.8948 10.2989 15.8948 8.44544C15.8948 6.82961 15.3958 5.62962 14.3978 4.84547C13.3998 4.06132 11.8434 3.66924 9.72853 3.66924H6.52063V13.3642H9.05131Z" fill="#A9A9A9"/>
</svg>
