<svg width="15" height="19" viewBox="0 0 15 19" fill="none" xmlns="http://www.w3.org/2000/svg">
<path d="M2.14422 18.9774V16.2284H0.0889414V13.7364H2.14422V11.7325H0.0889414V8.5468H2.14422V0.63397H8.00177C10.3653 0.63397 12.0866 1.11354 13.1657 2.07267C14.2618 3.0318 14.8099 4.3506 14.8099 6.02908C14.8099 7.02247 14.5872 7.95591 14.1419 8.8294C13.6966 9.7029 12.9516 10.4051 11.9068 10.9361C10.8792 11.467 9.47473 11.7325 7.69348 11.7325H6.02357V13.7364H9.97998V16.2284H6.02357V18.9774H2.14422ZM7.30812 8.5468C8.40427 8.5468 9.2692 8.3584 9.90291 7.9816C10.5537 7.6048 10.8792 6.99678 10.8792 6.15754C10.8792 4.59895 9.85153 3.81966 7.79625 3.81966H6.02357V8.5468H7.30812Z" fill="#3D4B71"/>
</svg>
